<svg width="135" height="69" viewBox="0 0 135 69" fill="none" xmlns="http://www.w3.org/2000/svg">
<g clip-path="url(#clip0_623_57)">
<mask id="mask0_623_57" style="mask-type:luminance" maskUnits="userSpaceOnUse" x="0" y="37" width="108" height="32">
<path d="M73.1033 67.7807H78.3872V47.2554H73.1614L73.1033 67.7807ZM5.19678 50.1937V47.2411H0V67.7807H5.2113V58.0244C5.2113 55.1717 5.50162 54.1875 6.32904 53.2033C6.69768 52.7641 7.16461 52.4146 7.6934 52.182C8.22219 51.9495 8.79853 51.8401 9.37743 51.8625C10.102 51.8407 10.822 51.9822 11.4823 52.2762L14.0371 47.6548C12.9116 47.0506 11.6469 46.7412 10.3645 46.7561C9.24238 46.7113 8.13512 47.0209 7.2051 47.6395C6.27509 48.2581 5.57125 49.1533 5.19678 50.1937ZM22.6162 51.0495C25.2436 51.0495 26.5065 53.2746 26.5065 55.785H18.2323C18.6823 52.6328 20.3226 51.0495 22.5871 51.0495M12.9339 57.6108C12.9339 64.4145 16.9113 68.2799 23.8355 68.2799C26.3318 68.3309 28.8092 67.844 31.0936 66.8536L29.3081 62.5745C27.7144 63.3565 25.9502 63.7433 24.1694 63.7013C20.7581 63.7013 18.8565 62.275 18.3629 59.5221H31.5726C31.6597 58.5807 31.6888 57.6821 31.6888 56.6694C31.6888 51.4917 29.5258 46.7989 23.0516 46.7989C16.2 46.7989 13.0355 52.1193 13.0355 57.6535M33.5759 57.6535C33.5759 64.443 37.8001 68.3227 44.1581 68.3227C46.2917 68.3598 48.406 67.9209 50.342 67.039L48.571 62.6173C47.2805 63.3503 45.8078 63.7158 44.3178 63.6728C41.0081 63.6728 38.7436 61.6616 38.7436 57.5109C38.7436 53.6883 40.7759 51.349 44.3614 51.349C45.8379 51.319 47.2944 51.6891 48.571 52.4188L50.3856 48.0541C48.3799 47.1489 46.1905 46.705 43.9839 46.7561C37.5097 46.7561 33.4888 51.1636 33.4888 57.6108M95.9953 43.5326V47.2554H88.8388V39.9381L83.6421 43.504V47.2411H80.4195V51.5202H83.6421V61.5903C83.5016 62.4949 83.5797 63.4192 83.87 64.2886C84.1603 65.158 84.6546 65.9482 85.3131 66.5952C85.9716 67.2422 86.7757 67.7279 87.6605 68.0132C88.5453 68.2984 89.486 68.3751 90.4066 68.2372C92.0084 68.2499 93.5937 67.9189 95.0518 67.2672L93.2953 62.9881C92.6178 63.3818 91.8468 63.5933 91.0598 63.6015C89.5066 63.6015 88.8388 62.7742 88.8388 61.305V51.5772H95.9953V61.6474C95.8549 62.5519 95.933 63.4762 96.2232 64.3457C96.5135 65.2151 97.0079 66.0052 97.6663 66.6522C98.3248 67.2993 99.1289 67.785 100.014 68.0702C100.899 68.3555 101.839 68.4322 102.76 68.2942C104.367 68.31 105.957 67.9789 107.42 67.3243L105.678 63.0452C104.999 63.437 104.229 63.6484 103.442 63.6585C101.889 63.6585 101.221 62.8312 101.221 61.305V51.5772H106.694V47.2982H101.192V39.9381L95.9953 43.5326ZM72.4501 41.7354C72.453 42.3695 72.647 42.9886 73.0076 43.5144C73.3682 44.0403 73.8793 44.4495 74.4764 44.6902C75.0734 44.9309 75.7297 44.9924 76.3623 44.867C76.9949 44.7415 77.5755 44.4348 78.0308 43.9854C78.4862 43.536 78.7958 42.9641 78.9206 42.342C79.0455 41.7198 78.98 41.0753 78.7323 40.4897C78.4847 39.9041 78.0661 39.4037 77.5293 39.0517C76.9925 38.6996 76.3616 38.5118 75.7162 38.5118C74.85 38.5118 74.0192 38.8499 73.4067 39.4518C72.7942 40.0536 72.4501 40.8699 72.4501 41.7211M52.5485 41.1933V67.7807H57.8033V58.1813L64.4372 67.7807H71.013L62.7678 56.3698L71.1291 47.2554H64.3791L57.8033 54.7723V37.5704L52.5485 41.1933Z" fill="white"/>
</mask>
<g mask="url(#mask0_623_57)">
<path d="M72.0439 -12.0009L-14.7004 47.6815L35.3145 117.868L122.059 58.1852L72.0439 -12.0009Z" fill="url(#paint0_linear_623_57)"/>
</g>
<mask id="mask1_623_57" style="mask-type:luminance" maskUnits="userSpaceOnUse" x="88" y="0" width="48" height="40">
<path d="M88.8388 24.7474C88.8138 29.2892 89.8571 33.7753 91.8872 37.8556L98.013 33.5765C96.6055 30.5877 95.8962 27.3273 95.9372 24.0342C95.9372 13.7359 103.631 5.93366 113.502 5.93366C123.14 5.93366 129.049 12.609 129.049 21.2243C129.049 28.9409 123.823 33.9474 117.044 33.9474C110.555 33.9474 105.982 29.5827 105.982 23.3781C105.982 17.9151 109.51 14.2493 113.749 14.2493C116.942 14.2493 118.684 15.6757 118.684 17.9579C118.684 20.5253 115.984 21.9517 113.211 21.1957L110.308 23.2212C112.708 26.1927 115.535 28.8064 118.699 30.9806L121.805 28.8553C120.056 27.553 118.388 26.1478 116.811 24.6475C118.504 24.4843 120.074 23.707 121.215 22.4674C122.356 21.2278 122.985 19.6149 122.981 17.9436C122.981 13.3365 119.642 10.0701 113.821 10.0701C106.897 10.0701 101.09 15.6757 101.09 23.6491C101.09 32.5068 107.681 39.0538 117.16 39.0538C127.597 39.1108 135 31.3799 135 21.1101C135 8.91476 126.392 0 113.226 0C99.784 0 88.8388 10.2841 88.8388 24.7474Z" fill="white"/>
</mask>
<g mask="url(#mask1_623_57)">
<path d="M119.816 -21.3154L70.1362 12.8659L104.023 60.42L153.704 26.2387L119.816 -21.3154Z" fill="url(#paint1_linear_623_57)"/>
</g>
</g>
<defs>
<linearGradient id="paint0_linear_623_57" x1="11.8481" y1="82.719" x2="90.3757" y2="26.7599" gradientUnits="userSpaceOnUse">
<stop stop-color="#C41974"/>
<stop offset="0.25" stop-color="#FF007F"/>
<stop offset="1" stop-color="#FF007F"/>
</linearGradient>
<linearGradient id="paint1_linear_623_57" x1="91.8032" y1="35.139" x2="130.777" y2="7.36583" gradientUnits="userSpaceOnUse">
<stop stop-color="#FF007F"/>
<stop offset="0.5" stop-color="#FF007F"/>
<stop offset="1" stop-color="#FF593D"/>
</linearGradient>
<clipPath id="clip0_623_57">
<rect width="135" height="68.2942" fill="white"/>
</clipPath>
</defs>
</svg>
